<svg xmlns="http://www.w3.org/2000/svg" width="64" height="64" id="research">
  <path d="M16 2.273c-.75 0-1.364.524-1.85 1.262-.485.738-.89 1.744-1.23 2.97-.25.9-.448 1.95-.617 3.061-2.477-.975-4.643-1.49-6.174-1.4-.881.052-1.641.322-2.016.97-.375.65-.228 1.444.168 2.233.396.79 1.065 1.643 1.957 2.55.659.672 1.476 1.373 2.362 2.081-.886.708-1.703 1.41-2.362 2.08-.892.908-1.56 1.762-1.957 2.55-.396.79-.543 1.584-.168 2.233.251.434.695.704 1.2.84.391.106.848.128 1.337.115A2.499 2.499 0 0 0 9 25.5c1.376 0 2.5-1.124 2.5-2.5 0-.094-.017-.184-.027-.275.271-.098.547-.202.828-.31.17 1.118.368 2.175.619 3.08.34 1.226.745 2.232 1.23 2.97.486.738 1.1 1.262 1.85 1.262s1.364-.524 1.85-1.262c.485-.738.89-1.744 1.23-2.97.252-.908.45-1.968.621-3.09a29.96 29.96 0 0 0 1.803.634c.022.804.687 1.461 1.496 1.461a1.5 1.5 0 0 0 1.303-.777c.745.106 1.425.148 1.994.062.68-.103 1.277-.38 1.59-.922.375-.65.228-1.443-.168-2.232-.396-.79-1.065-1.643-1.957-2.55-.659-.672-1.476-1.373-2.362-2.081.886-.708 1.703-1.41 2.362-2.08.892-.908 1.56-1.762 1.957-2.55.396-.79.543-1.584.168-2.233-.235-.406-.64-.673-1.104-.817-.463-.144-1-.185-1.61-.154-1.451.073-3.35.573-5.48 1.408a28.325 28.325 0 0 0-.466-2.41A2.493 2.493 0 0 0 20.5 5c0-1.376-1.124-2.5-2.5-2.5a2.47 2.47 0 0 0-.926.182c-.314-.245-.674-.409-1.074-.409zm0 1c.036 0 .088.043.137.077A2.483 2.483 0 0 0 15.5 5c0 .516.158.995.428 1.395v.001a2.538 2.538 0 0 0 1.101.907c.3.127.627.197.971.197.088 0 .17-.018.256-.027.183.752.334 1.6.469 2.49-.878.375-1.792.814-2.723 1.293a42.426 42.426 0 0 0-2.746-1.299c.17-1.172.375-2.268.629-3.184.323-1.163.708-2.092 1.101-2.689.394-.598.747-.81 1.014-.81zm2 .227c.84 0 1.5.66 1.5 1.5 0 .616-.358 1.132-.879 1.365l-.13.045c-.167.057-.327.09-.491.09-.315 0-.605-.094-.844-.254a1.476 1.476 0 0 1-.402-.402v-.002a1.487 1.487 0 0 1-.225-.535v-.002a1.49 1.49 0 0 1 .023-.684l.016-.055a1.45 1.45 0 0 1 .131-.308l.01-.02c.13-.217.317-.4.539-.529l.133-.076.031-.018c.18-.075.378-.115.588-.115zM6.187 9.166c1.283-.075 3.435.442 5.96 1.443-.117.955-.2 1.966-.252 3.02a42.194 42.194 0 0 0-2.495 1.73c-.933-.735-1.781-1.46-2.449-2.14-.846-.862-1.455-1.66-1.775-2.3-.32-.638-.329-1.051-.196-1.282.134-.232.493-.43 1.207-.471zm19.038 0c.53-.027.962.016 1.261.11.3.092.45.216.534.36.133.232.125.645-.196 1.284-.32.64-.93 1.437-1.775 2.299-.668.68-1.517 1.406-2.451 2.142a42.2 42.2 0 0 0-2.493-1.73 41.513 41.513 0 0 0-.26-3.026c2.17-.864 4.067-1.373 5.38-1.439zm-6.354 1.842c.076.632.136 1.295.184 1.976-.326-.198-.632-.4-.97-.595-.336-.195-.666-.369-1-.551a41.17 41.17 0 0 1 1.786-.83zm-5.766.002c.588.252 1.189.53 1.803.83-.33.181-.66.356-.994.549-.34.196-.65.401-.978.601.044-.68.097-1.347.17-1.98zm2.891 1.375c.526.276 1.056.563 1.59.87.535.31 1.032.628 1.535.944.024.591.049 1.182.049 1.801 0 .617-.028 1.207-.05 1.8-.503.317-1 .636-1.534.944-.533.308-1.059.593-1.58.865a43.284 43.284 0 0 1-1.592-.865c-.534-.308-1.03-.627-1.533-.943-.023-.594-.05-1.184-.05-1.801 0-.618.027-1.208.05-1.803.502-.316 1-.633 1.533-.941.53-.306 1.06-.596 1.582-.871zM16 13.5a2.506 2.506 0 0 0-2.5 2.5c0 1.376 1.124 2.5 2.5 2.5s2.5-1.124 2.5-2.5-1.124-2.5-2.5-2.5zm0 1c.84 0 1.5.66 1.5 1.5s-.66 1.5-1.5 1.5-1.5-.66-1.5-1.5.66-1.5 1.5-1.5zm-4.139.35c-.009.385-.03.756-.03 1.15 0 .394.021.764.03 1.148A41.487 41.487 0 0 1 10.215 16a41.474 41.474 0 0 1 1.646-1.15zm8.278.002c.572.382 1.13.765 1.646 1.148-.516.383-1.074.766-1.646 1.148.009-.384.03-.754.03-1.148 0-.394-.021-.764-.03-1.148zM9.4 16.64c.77.579 1.606 1.157 2.495 1.73.051 1.046.133 2.05.248 2.998-.335.131-.67.264-.993.379a2.496 2.496 0 0 0-1.755-1.209 2.13 2.13 0 0 0-.87.01 2.498 2.498 0 0 0-2.004 2.244c-.356 0-.72.006-.947-.057-.338-.092-.506-.222-.594-.373-.133-.23-.125-.644.196-1.283.32-.64.93-1.437 1.775-2.299.668-.68 1.516-1.405 2.45-2.14zm13.2 0c.933.735 1.781 1.46 2.449 2.14.846.862 1.455 1.66 1.775 2.3.32.638.329 1.051.196 1.282-.11.19-.361.356-.872.434-.41.062-1.024.01-1.677-.082A1.511 1.511 0 0 0 23 21.5c-.476 0-.898.231-1.174.582a30.765 30.765 0 0 1-1.97-.705c.115-.95.198-1.957.25-3.006a42.194 42.194 0 0 0 2.494-1.73zm-9.664 2.369c.328.2.637.405.978.601.336.194.664.36.996.541-.615.298-1.217.573-1.805.823a41.381 41.381 0 0 1-.17-1.965zm6.128 0a41.4 41.4 0 0 1-.17 1.97 39.103 39.103 0 0 1-1.8-.824c.33-.18.658-.352.992-.545.34-.196.65-.401.978-.601zm-3.066 1.732c.947.484 1.86.897 2.75 1.272-.17 1.184-.377 2.29-.633 3.213-.323 1.163-.708 2.092-1.101 2.689-.394.598-.747.81-1.014.81s-.62-.212-1.014-.81c-.393-.597-.778-1.526-1.101-2.69-.256-.92-.46-2.022-.631-3.203a41.588 41.588 0 0 0 2.744-1.28zM9 21.5c.158 0 .306.028.447.072l.057.018c.44.157.78.512.92.963l.049.156c.017.094.027.191.027.291 0 .84-.66 1.5-1.5 1.5a1.483 1.483 0 0 1-1.457-1.148l-.018-.118A1.626 1.626 0 0 1 7.5 23c0-.104.01-.207.03-.305v-.002c.019-.097.05-.191.087-.28v-.003a1.476 1.476 0 0 1 1.078-.88c.099-.02.2-.03.305-.03zm14 1c.286 0 .5.214.5.5 0-.061-.003-.043-.027.088l-.024.13A.487.487 0 0 1 23 23.5a.488.488 0 0 1-.5-.5c0-.027.01-.05.014-.076l.023-.072a.52.52 0 0 1 .168-.252c.007-.006.016-.01.024-.014a.444.444 0 0 1 .101-.055.521.521 0 0 1 .17-.031z" color="#000" font-family="sans-serif" font-weight="400" overflow="visible" style="line-height:normal;text-indent:0;text-align:start;text-decoration-line:none;text-decoration-style:solid;text-decoration-color:#000;text-transform:none;block-progression:tb;white-space:normal;isolation:auto;mix-blend-mode:normal;solid-color:#000;solid-opacity:1"></path>
</svg>
