<svg xmlns="http://www.w3.org/2000/svg" fill-rule="evenodd" stroke-linejoin="round" stroke-miterlimit="2" clip-rule="evenodd" viewBox="0 0 64 64" id="letterboxd">
  <path d="M15 20C8.378 20 3 25.379 3 32c0 6.623 5.378 12 12 12 6.623 0 12-5.377 12-12 0-6.622-5.377-12-12-12zm0 2c5.52 0 10 4.481 10 10 0 5.52-4.48 10-10 10-5.519 0-10-4.48-10-10 0-5.519 4.481-10 10-10z"></path>
  <path d="M32 20c-6.622 0-12 5.378-12 12 0 6.623 5.378 12 12 12 6.623 0 12-5.377 12-12 0-6.622-5.377-12-12-12zm0 2c5.52 0 10 4.481 10 10 0 5.52-4.48 10-10 10-5.519 0-10-4.48-10-10 0-5.519 4.481-10 10-10z"></path>
  <path d="M49 20c-6.622 0-12 5.378-12 12 0 6.623 5.378 12 12 12 6.623 0 12-5.377 12-12 0-6.622-5.377-12-12-12zm0 2c5.52 0 10 4.481 10 10 0 5.52-4.48 10-10 10-5.519 0-10-4.48-10-10 0-5.519 4.481-10 10-10z"></path>
</svg>
